<mxfile host="app.diagrams.net" agent="Mozilla/5.0 (Windows NT 10.0; Win64; x64) AppleWebKit/537.36 (KHTML, like Gecko) Chrome/138.0.0.0 Safari/537.36" version="28.0.9">
  <diagram name="Decompressor architecture" id="7FQAbGWQgKwpJDsRCqZl">
    <mxGraphModel dx="820" dy="361" grid="1" gridSize="10" guides="1" tooltips="1" connect="1" arrows="1" fold="1" page="1" pageScale="1" pageWidth="850" pageHeight="1100" math="0" shadow="0">
      <root>
        <mxCell id="0" />
        <mxCell id="1" parent="0" />
        <mxCell id="L-PkWKqUlunyUm9uGWdc-1" value="" style="rounded=0;whiteSpace=wrap;html=1;fillStyle=solid;strokeColor=#000000;strokeWidth=3;fillColor=none;" parent="1" vertex="1">
          <mxGeometry x="120" y="41" width="620" height="450" as="geometry" />
        </mxCell>
        <mxCell id="L-PkWKqUlunyUm9uGWdc-2" value="&lt;font style=&quot;font-size: 15px;&quot;&gt;&lt;i&gt;&#39;0&#39;&lt;/i&gt;&lt;/font&gt;" style="text;strokeColor=none;align=center;fillColor=none;html=1;verticalAlign=middle;whiteSpace=wrap;rounded=0;fontSize=17;" parent="1" vertex="1">
          <mxGeometry x="581" y="245" width="21" height="30" as="geometry" />
        </mxCell>
        <mxCell id="L-PkWKqUlunyUm9uGWdc-3" value="&lt;font size=&quot;1&quot; color=&quot;#000000&quot;&gt;&lt;b style=&quot;font-size: 18px;&quot;&gt;LSB Register&lt;/b&gt;&lt;/font&gt;" style="verticalAlign=top;align=center;shape=cube;size=10;direction=south;fontStyle=0;html=1;boundedLbl=1;spacingLeft=5;rounded=1;fillColor=#95F0E1;strokeColor=#10739e;strokeWidth=2;" parent="1" vertex="1">
          <mxGeometry x="248" y="383" width="260" height="100" as="geometry" />
        </mxCell>
        <mxCell id="L-PkWKqUlunyUm9uGWdc-4" value="&lt;font style=&quot;font-size: 18px;&quot; color=&quot;#000000&quot;&gt;&amp;nbsp; &amp;nbsp; &amp;nbsp; &amp;nbsp; &amp;nbsp; &amp;nbsp;&amp;nbsp;&lt;b&gt;Mask Decoder&lt;/b&gt;&lt;/font&gt;" style="verticalAlign=top;align=left;shape=cube;size=10;direction=south;fontStyle=0;html=1;boundedLbl=1;spacingLeft=5;rounded=1;fillColor=#95F0E1;strokeColor=#10739e;strokeWidth=2;" parent="1" vertex="1">
          <mxGeometry x="246" y="77" width="260" height="100" as="geometry" />
        </mxCell>
        <mxCell id="L-PkWKqUlunyUm9uGWdc-5" value="&lt;font style=&quot;font-size: 15px;&quot;&gt;Mask1&lt;/font&gt;" style="verticalAlign=top;align=center;shape=cube;size=10;direction=south;html=1;boundedLbl=1;spacingLeft=5;rounded=1;fillColor=#7CFA9B;strokeColor=#000000;fontColor=#000000;" parent="L-PkWKqUlunyUm9uGWdc-4" vertex="1">
          <mxGeometry width="100" height="40" relative="1" as="geometry">
            <mxPoint x="24" y="45" as="offset" />
          </mxGeometry>
        </mxCell>
        <mxCell id="L-PkWKqUlunyUm9uGWdc-6" value="&lt;font style=&quot;font-size: 15px;&quot;&gt;Mask2&lt;/font&gt;" style="verticalAlign=top;align=center;shape=cube;size=10;direction=south;html=1;boundedLbl=1;spacingLeft=5;rounded=1;fillColor=#7CFA9B;strokeColor=#000000;fontColor=#000000;" parent="L-PkWKqUlunyUm9uGWdc-4" vertex="1">
          <mxGeometry width="100" height="40" relative="1" as="geometry">
            <mxPoint x="134" y="44" as="offset" />
          </mxGeometry>
        </mxCell>
        <mxCell id="L-PkWKqUlunyUm9uGWdc-7" value="&lt;font size=&quot;1&quot; color=&quot;#000000&quot;&gt;&lt;b style=&quot;font-size: 18px;&quot;&gt;&amp;nbsp; &amp;nbsp; &amp;nbsp; &amp;nbsp; &amp;nbsp; &amp;nbsp; MSB Decoder&lt;/b&gt;&lt;/font&gt;" style="verticalAlign=top;align=left;shape=cube;size=10;direction=south;fontStyle=0;html=1;boundedLbl=1;spacingLeft=5;rounded=1;fillColor=#95F0E1;strokeColor=#10739e;strokeWidth=2;" parent="1" vertex="1">
          <mxGeometry x="246" y="258" width="260" height="100" as="geometry" />
        </mxCell>
        <mxCell id="L-PkWKqUlunyUm9uGWdc-8" style="html=1;fontColor=#000000;shadow=0;strokeColor=#006EAF;strokeWidth=4;rounded=0;" parent="1" source="L-PkWKqUlunyUm9uGWdc-3" edge="1">
          <mxGeometry relative="1" as="geometry">
            <mxPoint x="590" y="434" as="targetPoint" />
            <mxPoint x="536.4" y="433.86" as="sourcePoint" />
          </mxGeometry>
        </mxCell>
        <mxCell id="L-PkWKqUlunyUm9uGWdc-9" value="" style="shape=trapezoid;perimeter=trapezoidPerimeter;whiteSpace=wrap;html=1;fixedSize=1;strokeColor=#10739e;fillColor=#95F0E1;direction=south;strokeWidth=2;" parent="1" vertex="1">
          <mxGeometry x="680" y="203" width="42" height="279" as="geometry" />
        </mxCell>
        <mxCell id="L-PkWKqUlunyUm9uGWdc-10" style="html=1;fontColor=#000000;shadow=0;strokeColor=#006EAF;strokeWidth=4;entryX=0;entryY=0.5;entryDx=0;entryDy=0;rounded=0;" parent="1" target="L-PkWKqUlunyUm9uGWdc-9" edge="1">
          <mxGeometry relative="1" as="geometry">
            <mxPoint x="686" y="193" as="targetPoint" />
            <mxPoint x="507" y="139" as="sourcePoint" />
            <Array as="points">
              <mxPoint x="701" y="138" />
            </Array>
          </mxGeometry>
        </mxCell>
        <mxCell id="L-PkWKqUlunyUm9uGWdc-11" style="edgeStyle=none;html=1;fontColor=#000000;shadow=0;strokeColor=#006EAF;strokeWidth=4;" parent="1" edge="1">
          <mxGeometry relative="1" as="geometry">
            <mxPoint x="840" y="333" as="targetPoint" />
            <mxPoint x="721" y="332.9049111807733" as="sourcePoint" />
            <Array as="points">
              <mxPoint x="744" y="333" />
            </Array>
          </mxGeometry>
        </mxCell>
        <mxCell id="L-PkWKqUlunyUm9uGWdc-12" value="" style="endArrow=classicThin;startArrow=none;endFill=1;startFill=0;endSize=8;html=1;verticalAlign=bottom;labelBackgroundColor=none;strokeWidth=2;shadow=0;sketch=0;fontColor=#000000;fillColor=#008a00;strokeColor=#005700;" parent="1" edge="1">
          <mxGeometry width="160" relative="1" as="geometry">
            <mxPoint x="90" y="273" as="sourcePoint" />
            <mxPoint x="248" y="273" as="targetPoint" />
          </mxGeometry>
        </mxCell>
        <mxCell id="L-PkWKqUlunyUm9uGWdc-13" value="" style="endArrow=classicThin;startArrow=none;endFill=1;startFill=0;endSize=8;html=1;verticalAlign=bottom;labelBackgroundColor=none;strokeWidth=2;shadow=0;sketch=0;fontColor=#000000;fillColor=#008a00;strokeColor=#005700;" parent="1" edge="1">
          <mxGeometry width="160" relative="1" as="geometry">
            <mxPoint x="90" y="298" as="sourcePoint" />
            <mxPoint x="246" y="297.5" as="targetPoint" />
          </mxGeometry>
        </mxCell>
        <mxCell id="L-PkWKqUlunyUm9uGWdc-14" value="&lt;font size=&quot;1&quot; color=&quot;#000000&quot;&gt;&lt;b style=&quot;font-size: 15px;&quot;&gt;Selector&lt;/b&gt;&lt;/font&gt;" style="text;strokeColor=none;align=center;fillColor=none;html=1;verticalAlign=middle;whiteSpace=wrap;rounded=0;direction=west;spacingRight=0;labelPosition=center;verticalLabelPosition=middle;flipV=0;flipH=1;rotation=90;" parent="1" vertex="1">
          <mxGeometry x="668" y="328" width="60" height="14" as="geometry" />
        </mxCell>
        <mxCell id="L-PkWKqUlunyUm9uGWdc-15" style="html=1;fontColor=#000000;shadow=0;strokeColor=#3700CC;fillColor=#6a00ff;strokeWidth=2;" parent="1" edge="1">
          <mxGeometry relative="1" as="geometry">
            <mxPoint x="620" y="123" as="targetPoint" />
            <mxPoint x="507" y="123.04491118077328" as="sourcePoint" />
          </mxGeometry>
        </mxCell>
        <mxCell id="L-PkWKqUlunyUm9uGWdc-16" style="edgeStyle=none;html=1;fontColor=#000000;shadow=0;strokeColor=#3700CC;fillColor=#6a00ff;strokeWidth=2;" parent="1" edge="1">
          <mxGeometry relative="1" as="geometry">
            <mxPoint x="620" y="296" as="targetPoint" />
            <mxPoint x="508" y="296.0449111807733" as="sourcePoint" />
            <Array as="points" />
          </mxGeometry>
        </mxCell>
        <mxCell id="L-PkWKqUlunyUm9uGWdc-17" value="" style="edgeStyle=segmentEdgeStyle;endArrow=classic;html=1;curved=0;rounded=0;endSize=8;startSize=8;fontColor=#000000;strokeColor=#3700CC;fillColor=#6a00ff;strokeWidth=2;" parent="1" edge="1">
          <mxGeometry width="50" height="50" relative="1" as="geometry">
            <mxPoint x="610" y="423" as="sourcePoint" />
            <mxPoint x="90" y="66" as="targetPoint" />
            <Array as="points">
              <mxPoint x="610" y="423" />
              <mxPoint x="620" y="423" />
              <mxPoint x="620" y="66" />
            </Array>
          </mxGeometry>
        </mxCell>
        <mxCell id="L-PkWKqUlunyUm9uGWdc-18" style="edgeStyle=none;html=1;fontColor=#000000;shadow=0;strokeColor=#3700CC;fillColor=#6a00ff;strokeWidth=2;" parent="1" edge="1">
          <mxGeometry relative="1" as="geometry">
            <mxPoint x="620" y="423" as="targetPoint" />
            <mxPoint x="507" y="422.0449111807733" as="sourcePoint" />
            <Array as="points">
              <mxPoint x="550" y="423" />
            </Array>
          </mxGeometry>
        </mxCell>
        <mxCell id="L-PkWKqUlunyUm9uGWdc-19" value="" style="edgeStyle=none;orthogonalLoop=1;jettySize=auto;html=1;entryX=0.685;entryY=0.992;entryDx=0;entryDy=0;entryPerimeter=0;strokeColor=#006EAF;fillColor=#1ba1e2;strokeWidth=4;" parent="1" edge="1">
          <mxGeometry width="80" relative="1" as="geometry">
            <mxPoint x="70" y="345" as="sourcePoint" />
            <mxPoint x="248.07999999999993" y="344.5" as="targetPoint" />
            <Array as="points">
              <mxPoint x="220" y="345" />
            </Array>
          </mxGeometry>
        </mxCell>
        <mxCell id="L-PkWKqUlunyUm9uGWdc-20" value="" style="edgeStyle=segmentEdgeStyle;endArrow=classic;html=1;curved=0;rounded=0;endSize=8;startSize=8;strokeColor=#006EAF;fillColor=#1ba1e2;strokeWidth=4;" parent="1" edge="1">
          <mxGeometry width="50" height="50" relative="1" as="geometry">
            <mxPoint x="188" y="264" as="sourcePoint" />
            <mxPoint x="248" y="144" as="targetPoint" />
            <Array as="points">
              <mxPoint x="188" y="264" />
              <mxPoint x="188" y="144" />
            </Array>
          </mxGeometry>
        </mxCell>
        <mxCell id="L-PkWKqUlunyUm9uGWdc-21" value="" style="edgeStyle=segmentEdgeStyle;endArrow=classic;html=1;curved=0;rounded=0;endSize=8;startSize=8;strokeColor=#006EAF;fillColor=#1ba1e2;strokeWidth=4;" parent="1" edge="1">
          <mxGeometry width="50" height="50" relative="1" as="geometry">
            <mxPoint x="188" y="274" as="sourcePoint" />
            <mxPoint x="248" y="404" as="targetPoint" />
            <Array as="points">
              <mxPoint x="188" y="274" />
              <mxPoint x="188" y="404" />
            </Array>
          </mxGeometry>
        </mxCell>
        <mxCell id="L-PkWKqUlunyUm9uGWdc-22" value="" style="endArrow=classic;startArrow=none;endFill=1;startFill=0;html=1;verticalAlign=bottom;labelBackgroundColor=none;strokeWidth=2;shadow=0;sketch=0;fontColor=#000000;fillColor=#008a00;strokeColor=#005700;" parent="1" edge="1">
          <mxGeometry width="160" relative="1" as="geometry">
            <mxPoint x="90" y="113" as="sourcePoint" />
            <mxPoint x="245" y="112.5" as="targetPoint" />
          </mxGeometry>
        </mxCell>
        <mxCell id="L-PkWKqUlunyUm9uGWdc-23" value="" style="endArrow=classicThin;startArrow=none;endFill=1;startFill=0;endSize=8;html=1;verticalAlign=bottom;labelBackgroundColor=none;strokeWidth=2;shadow=0;sketch=0;fontColor=#000000;fillColor=#008a00;strokeColor=#005700;" parent="1" edge="1">
          <mxGeometry width="160" relative="1" as="geometry">
            <mxPoint x="90" y="443" as="sourcePoint" />
            <mxPoint x="247" y="443.5" as="targetPoint" />
          </mxGeometry>
        </mxCell>
        <mxCell id="L-PkWKqUlunyUm9uGWdc-24" style="html=1;fontColor=#000000;shadow=0;strokeColor=#006EAF;strokeWidth=4;" parent="1" edge="1">
          <mxGeometry relative="1" as="geometry">
            <mxPoint x="590" y="330" as="targetPoint" />
            <mxPoint x="506" y="330" as="sourcePoint" />
          </mxGeometry>
        </mxCell>
        <mxCell id="L-PkWKqUlunyUm9uGWdc-25" value="" style="endArrow=none;html=1;strokeColor=#006EAF;strokeWidth=2;" parent="1" edge="1">
          <mxGeometry width="50" height="50" relative="1" as="geometry">
            <mxPoint x="96" y="355" as="sourcePoint" />
            <mxPoint x="116" y="335" as="targetPoint" />
          </mxGeometry>
        </mxCell>
        <mxCell id="L-PkWKqUlunyUm9uGWdc-26" value="" style="endArrow=none;html=1;strokeColor=#006EAF;strokeWidth=2;" parent="1" edge="1">
          <mxGeometry width="50" height="50" relative="1" as="geometry">
            <mxPoint x="781" y="342" as="sourcePoint" />
            <mxPoint x="801" y="322" as="targetPoint" />
          </mxGeometry>
        </mxCell>
        <mxCell id="L-PkWKqUlunyUm9uGWdc-27" value="&lt;b&gt;&lt;font style=&quot;font-size: 17px;&quot;&gt;8b&lt;/font&gt;&lt;/b&gt;" style="text;strokeColor=none;align=center;fillColor=none;html=1;verticalAlign=middle;whiteSpace=wrap;rounded=0;fontColor=default;" parent="1" vertex="1">
          <mxGeometry x="80" y="323" width="25" height="24" as="geometry" />
        </mxCell>
        <mxCell id="L-PkWKqUlunyUm9uGWdc-28" value="&lt;b&gt;&lt;font style=&quot;font-size: 17px;&quot;&gt;8b&lt;/font&gt;&lt;/b&gt;" style="text;strokeColor=none;align=center;fillColor=none;html=1;verticalAlign=middle;whiteSpace=wrap;rounded=0;" parent="1" vertex="1">
          <mxGeometry x="747" y="310" width="70" height="25" as="geometry" />
        </mxCell>
        <mxCell id="L-PkWKqUlunyUm9uGWdc-29" value="&lt;b&gt;&lt;font style=&quot;font-size: 17px;&quot;&gt;dto&lt;/font&gt;&lt;/b&gt;" style="text;strokeColor=none;align=center;fillColor=none;html=1;verticalAlign=middle;whiteSpace=wrap;rounded=0;" parent="1" vertex="1">
          <mxGeometry x="719.5" y="340" width="80.5" height="33" as="geometry" />
        </mxCell>
        <mxCell id="L-PkWKqUlunyUm9uGWdc-30" value="&lt;font style=&quot;font-size: 15px;&quot;&gt;&lt;i&gt;mask_read&lt;/i&gt;&lt;/font&gt;" style="text;strokeColor=none;align=center;fillColor=none;html=1;verticalAlign=middle;whiteSpace=wrap;rounded=0;fontSize=17;" parent="1" vertex="1">
          <mxGeometry x="139" y="88" width="60" height="30" as="geometry" />
        </mxCell>
        <mxCell id="L-PkWKqUlunyUm9uGWdc-31" value="&lt;font style=&quot;font-size: 15px;&quot;&gt;&lt;i&gt;emsb_read_m&lt;/i&gt;&lt;/font&gt;" style="text;strokeColor=none;align=center;fillColor=none;html=1;verticalAlign=middle;whiteSpace=wrap;rounded=0;fontSize=17;" parent="1" vertex="1">
          <mxGeometry x="148" y="243" width="60" height="35" as="geometry" />
        </mxCell>
        <mxCell id="L-PkWKqUlunyUm9uGWdc-32" value="&lt;font style=&quot;font-size: 15px;&quot;&gt;&lt;i&gt;emsb_read_l&lt;/i&gt;&lt;/font&gt;" style="text;strokeColor=none;align=center;fillColor=none;html=1;verticalAlign=middle;whiteSpace=wrap;rounded=0;fontSize=17;" parent="1" vertex="1">
          <mxGeometry x="143" y="273" width="60" height="30" as="geometry" />
        </mxCell>
        <mxCell id="L-PkWKqUlunyUm9uGWdc-33" value="&lt;font style=&quot;font-size: 15px;&quot;&gt;&lt;i&gt;lsb_read_m&lt;/i&gt;&lt;/font&gt;" style="text;strokeColor=none;align=center;fillColor=none;html=1;verticalAlign=middle;whiteSpace=wrap;rounded=0;fontSize=17;" parent="1" vertex="1">
          <mxGeometry x="142" y="419" width="60" height="30" as="geometry" />
        </mxCell>
        <mxCell id="L-PkWKqUlunyUm9uGWdc-34" value="&lt;font style=&quot;font-size: 15px;&quot;&gt;&lt;i&gt;lsb_read_l&lt;/i&gt;&lt;/font&gt;" style="text;strokeColor=none;align=center;fillColor=none;html=1;verticalAlign=middle;whiteSpace=wrap;rounded=0;fontSize=17;" parent="1" vertex="1">
          <mxGeometry x="137" y="447" width="60" height="30" as="geometry" />
        </mxCell>
        <mxCell id="L-PkWKqUlunyUm9uGWdc-35" value="&lt;font style=&quot;font-size: 15px;&quot;&gt;&lt;i&gt;mask_can_read&lt;/i&gt;&lt;/font&gt;" style="text;strokeColor=none;align=center;fillColor=none;html=1;verticalAlign=middle;whiteSpace=wrap;rounded=0;fontSize=17;" parent="1" vertex="1">
          <mxGeometry x="531" y="98" width="60" height="30" as="geometry" />
        </mxCell>
        <mxCell id="L-PkWKqUlunyUm9uGWdc-36" value="&lt;font style=&quot;font-size: 15px;&quot;&gt;&lt;i&gt;emsb_can_read&lt;/i&gt;&lt;/font&gt;" style="text;strokeColor=none;align=center;fillColor=none;html=1;verticalAlign=middle;whiteSpace=wrap;rounded=0;fontSize=17;" parent="1" vertex="1">
          <mxGeometry x="531" y="269" width="60" height="30" as="geometry" />
        </mxCell>
        <mxCell id="L-PkWKqUlunyUm9uGWdc-37" value="&lt;font style=&quot;font-size: 15px;&quot;&gt;&lt;i&gt;lsb_can_read&lt;/i&gt;&lt;/font&gt;" style="text;strokeColor=none;align=center;fillColor=none;html=1;verticalAlign=middle;whiteSpace=wrap;rounded=0;fontSize=17;" parent="1" vertex="1">
          <mxGeometry x="528" y="397" width="60" height="30" as="geometry" />
        </mxCell>
        <mxCell id="L-PkWKqUlunyUm9uGWdc-38" value="&lt;b&gt;&lt;font style=&quot;font-size: 17px;&quot;&gt;dti&lt;/font&gt;&lt;/b&gt;" style="text;strokeColor=none;align=center;fillColor=none;html=1;verticalAlign=middle;whiteSpace=wrap;rounded=0;" parent="1" vertex="1">
          <mxGeometry x="80" y="355" width="40" height="30" as="geometry" />
        </mxCell>
        <mxCell id="L-PkWKqUlunyUm9uGWdc-39" value="&lt;font style=&quot;font-size: 15px;&quot;&gt;&lt;i&gt;top_can_read&lt;/i&gt;&lt;/font&gt;" style="text;strokeColor=none;align=center;fillColor=none;html=1;verticalAlign=middle;whiteSpace=wrap;rounded=0;fontSize=17;" parent="1" vertex="1">
          <mxGeometry x="149" y="40" width="60" height="30" as="geometry" />
        </mxCell>
        <mxCell id="L-PkWKqUlunyUm9uGWdc-40" value="" style="line;strokeWidth=4;rotatable=0;dashed=0;labelPosition=right;align=left;verticalAlign=middle;spacingTop=0;spacingLeft=6;points=[];portConstraint=eastwest;fillStyle=solid;strokeColor=#006eaf;fillColor=none;flipH=1;flipV=1;direction=south;" parent="1" vertex="1">
          <mxGeometry x="581" y="329" width="10" height="104" as="geometry" />
        </mxCell>
        <mxCell id="L-PkWKqUlunyUm9uGWdc-41" style="html=1;fontColor=#000000;shadow=0;strokeColor=#006EAF;strokeWidth=4;exitX=0.54;exitY=0.653;exitDx=0;exitDy=0;exitPerimeter=0;entryX=0.617;entryY=1.019;entryDx=0;entryDy=0;entryPerimeter=0;" parent="1" source="L-PkWKqUlunyUm9uGWdc-40" target="L-PkWKqUlunyUm9uGWdc-9" edge="1">
          <mxGeometry relative="1" as="geometry">
            <mxPoint x="653" y="376" as="targetPoint" />
            <mxPoint x="590" y="376" as="sourcePoint" />
          </mxGeometry>
        </mxCell>
        <mxCell id="L-PkWKqUlunyUm9uGWdc-42" value="&lt;font style=&quot;font-size: 15px;&quot;&gt;&lt;i&gt;dto_mask&lt;/i&gt;&lt;/font&gt;" style="text;strokeColor=none;align=center;fillColor=none;html=1;verticalAlign=middle;whiteSpace=wrap;rounded=0;fontSize=17;" parent="1" vertex="1">
          <mxGeometry x="512" y="132" width="60" height="30" as="geometry" />
        </mxCell>
        <mxCell id="L-PkWKqUlunyUm9uGWdc-43" value="&lt;font style=&quot;font-size: 15px;&quot;&gt;&lt;i&gt;dto_msb&lt;/i&gt;&lt;/font&gt;" style="text;strokeColor=none;align=center;fillColor=none;html=1;verticalAlign=middle;whiteSpace=wrap;rounded=0;fontSize=17;" parent="1" vertex="1">
          <mxGeometry x="509" y="325" width="60" height="30" as="geometry" />
        </mxCell>
        <mxCell id="L-PkWKqUlunyUm9uGWdc-44" value="&lt;font style=&quot;font-size: 15px;&quot;&gt;&lt;i&gt;dto_lsb&lt;/i&gt;&lt;/font&gt;" style="text;strokeColor=none;align=center;fillColor=none;html=1;verticalAlign=middle;whiteSpace=wrap;rounded=0;fontSize=17;" parent="1" vertex="1">
          <mxGeometry x="506" y="430" width="60" height="30" as="geometry" />
        </mxCell>
        <mxCell id="L-PkWKqUlunyUm9uGWdc-45" style="html=1;fontColor=#000000;shadow=0;strokeColor=#006EAF;strokeWidth=4;" parent="1" edge="1">
          <mxGeometry relative="1" as="geometry">
            <mxPoint x="680" y="262" as="targetPoint" />
            <mxPoint x="600" y="262" as="sourcePoint" />
          </mxGeometry>
        </mxCell>
        <mxCell id="L-PkWKqUlunyUm9uGWdc-46" value="&lt;b&gt;&lt;font style=&quot;font-size: 17px;&quot;&gt;8b&lt;/font&gt;&lt;/b&gt;" style="text;strokeColor=none;align=center;fillColor=none;html=1;verticalAlign=middle;whiteSpace=wrap;rounded=0;" parent="1" vertex="1">
          <mxGeometry x="608" y="240" width="62" height="25" as="geometry" />
        </mxCell>
        <mxCell id="L-PkWKqUlunyUm9uGWdc-47" value="" style="endArrow=none;html=1;strokeColor=#006EAF;strokeWidth=2;" parent="1" edge="1">
          <mxGeometry width="50" height="50" relative="1" as="geometry">
            <mxPoint x="642" y="269" as="sourcePoint" />
            <mxPoint x="662" y="249" as="targetPoint" />
          </mxGeometry>
        </mxCell>
        <mxCell id="L-PkWKqUlunyUm9uGWdc-48" value="" style="endArrow=classic;startArrow=none;endFill=1;startFill=0;html=1;verticalAlign=bottom;labelBackgroundColor=none;strokeWidth=2;shadow=0;sketch=0;fontColor=#000000;fillColor=#008a00;strokeColor=#005700;" parent="1" edge="1">
          <mxGeometry width="160" relative="1" as="geometry">
            <mxPoint x="840" y="143" as="sourcePoint" />
            <mxPoint x="740" y="143" as="targetPoint" />
            <Array as="points" />
          </mxGeometry>
        </mxCell>
        <mxCell id="L-PkWKqUlunyUm9uGWdc-49" value="&lt;b&gt;&lt;font style=&quot;font-size: 17px;&quot;&gt;give_output&lt;/font&gt;&lt;/b&gt;" style="text;strokeColor=none;align=center;fillColor=none;html=1;verticalAlign=middle;whiteSpace=wrap;rounded=0;" parent="1" vertex="1">
          <mxGeometry x="730" y="112" width="125" height="30" as="geometry" />
        </mxCell>
        <mxCell id="L-PkWKqUlunyUm9uGWdc-50" value="&lt;font style=&quot;font-size: 15px;&quot;&gt;E-MSB1&lt;/font&gt;" style="verticalAlign=top;align=left;shape=cube;size=10;direction=south;html=1;boundedLbl=1;spacingLeft=5;rounded=1;fillColor=#7CFA9B;fontColor=#000000;strokeColor=#000000;" parent="1" vertex="1">
          <mxGeometry x="259" y="305" width="74" height="38" as="geometry" />
        </mxCell>
        <mxCell id="L-PkWKqUlunyUm9uGWdc-51" value="" style="endArrow=classicThin;startArrow=none;endFill=1;startFill=0;endSize=8;html=1;verticalAlign=bottom;labelBackgroundColor=none;strokeWidth=2;shadow=0;sketch=0;fontColor=#000000;fillColor=#008a00;strokeColor=#005700;" parent="1" edge="1">
          <mxGeometry width="160" relative="1" as="geometry">
            <mxPoint x="89" y="323" as="sourcePoint" />
            <mxPoint x="245" y="322.5" as="targetPoint" />
          </mxGeometry>
        </mxCell>
        <mxCell id="L-PkWKqUlunyUm9uGWdc-52" value="&lt;font style=&quot;font-size: 15px;&quot;&gt;&lt;i&gt;emsb_read_both&lt;/i&gt;&lt;/font&gt;" style="text;strokeColor=none;align=center;fillColor=none;html=1;verticalAlign=middle;whiteSpace=wrap;rounded=0;fontSize=17;" parent="1" vertex="1">
          <mxGeometry x="156" y="297" width="60" height="30" as="geometry" />
        </mxCell>
        <mxCell id="L-PkWKqUlunyUm9uGWdc-53" value="" style="endArrow=classic;startArrow=classic;html=1;rounded=0;strokeColor=#006eaf;fontColor=default;exitX=0.125;exitY=0.502;exitDx=0;exitDy=0;exitPerimeter=0;" parent="1" edge="1">
          <mxGeometry width="50" height="50" relative="1" as="geometry">
            <mxPoint x="358.9749999999999" y="200" as="sourcePoint" />
            <mxPoint x="359" y="175" as="targetPoint" />
          </mxGeometry>
        </mxCell>
        <mxCell id="L-PkWKqUlunyUm9uGWdc-54" value="&lt;font style=&quot;font-size: 14px;&quot;&gt;TUNSTALL CODING&lt;/font&gt;" style="verticalAlign=top;align=center;shape=cube;size=10;direction=south;html=1;boundedLbl=1;spacingLeft=5;rounded=1;fillColor=#7CFA9B;fontColor=#000000;strokeColor=#000000;" parent="1" vertex="1">
          <mxGeometry x="458" y="199" width="152" height="34" as="geometry" />
        </mxCell>
        <mxCell id="L-PkWKqUlunyUm9uGWdc-55" value="" style="endArrow=classic;startArrow=classic;html=1;rounded=0;strokeColor=#006eaf;fontColor=default;" parent="1" edge="1">
          <mxGeometry width="50" height="50" relative="1" as="geometry">
            <mxPoint x="359" y="258" as="sourcePoint" />
            <mxPoint x="359" y="238" as="targetPoint" />
          </mxGeometry>
        </mxCell>
        <mxCell id="L-PkWKqUlunyUm9uGWdc-56" value="&lt;font style=&quot;font-size: 15px;&quot;&gt;E-MSB3&lt;/font&gt;" style="verticalAlign=top;align=left;shape=cube;size=10;direction=south;html=1;boundedLbl=1;spacingLeft=5;rounded=1;fillColor=#7CFA9B;fontColor=#000000;strokeColor=#000000;" parent="1" vertex="1">
          <mxGeometry x="415" y="305" width="74" height="38" as="geometry" />
        </mxCell>
        <mxCell id="L-PkWKqUlunyUm9uGWdc-57" value="&lt;font style=&quot;font-size: 15px;&quot;&gt;E-MSB2&lt;/font&gt;" style="verticalAlign=top;align=left;shape=cube;size=10;direction=south;html=1;boundedLbl=1;spacingLeft=5;rounded=1;fillColor=#7CFA9B;fontColor=#000000;strokeColor=#000000;" parent="1" vertex="1">
          <mxGeometry x="337" y="305" width="74" height="38" as="geometry" />
        </mxCell>
        <mxCell id="L-PkWKqUlunyUm9uGWdc-58" value="&lt;font style=&quot;font-size: 15px;&quot;&gt;REGISTER&lt;/font&gt;" style="verticalAlign=top;align=left;shape=cube;size=10;direction=south;html=1;boundedLbl=1;spacingLeft=5;rounded=1;fillColor=#7CFA9B;fontColor=#000000;strokeColor=#000000;" parent="1" vertex="1">
          <mxGeometry x="327" y="429" width="101" height="44" as="geometry" />
        </mxCell>
        <mxCell id="L-PkWKqUlunyUm9uGWdc-59" value="&lt;font size=&quot;1&quot; style=&quot;&quot; color=&quot;#000000&quot;&gt;&lt;b style=&quot;font-size: 19px;&quot;&gt;Coordinator&lt;/b&gt;&lt;/font&gt;" style="verticalAlign=top;align=left;shape=cube;size=10;direction=south;fontStyle=0;html=1;boundedLbl=1;spacingLeft=5;rounded=1;fillColor=#95F0E1;strokeColor=#10739e;strokeWidth=2;" parent="1" vertex="1">
          <mxGeometry x="299.5" y="198" width="137.5" height="40" as="geometry" />
        </mxCell>
        <mxCell id="L-PkWKqUlunyUm9uGWdc-60" value="" style="endArrow=classic;startArrow=classic;html=1;rounded=0;strokeColor=#006eaf;fontColor=default;" parent="1" edge="1">
          <mxGeometry width="50" height="50" relative="1" as="geometry">
            <mxPoint x="457" y="217.5" as="sourcePoint" />
            <mxPoint x="437" y="217.5" as="targetPoint" />
          </mxGeometry>
        </mxCell>
        <mxCell id="L-PkWKqUlunyUm9uGWdc-61" value="" style="endArrow=classicThin;startArrow=none;endFill=1;startFill=0;endSize=8;html=1;verticalAlign=bottom;labelBackgroundColor=none;strokeWidth=2;shadow=0;sketch=0;fontColor=#000000;fillColor=#008a00;strokeColor=#005700;" parent="1" edge="1">
          <mxGeometry width="160" relative="1" as="geometry">
            <mxPoint x="91" y="473" as="sourcePoint" />
            <mxPoint x="248" y="473.5" as="targetPoint" />
          </mxGeometry>
        </mxCell>
        <mxCell id="L-PkWKqUlunyUm9uGWdc-62" value="" style="rounded=0;whiteSpace=wrap;html=1;fillStyle=solid;strokeColor=#000000;strokeWidth=3;fillColor=none;" parent="1" vertex="1">
          <mxGeometry x="80" y="821.5" width="640" height="361" as="geometry" />
        </mxCell>
        <mxCell id="L-PkWKqUlunyUm9uGWdc-63" value="&lt;font style=&quot;font-size: 15px;&quot;&gt;&lt;i&gt;&#39;0&#39;&lt;/i&gt;&lt;/font&gt;" style="text;strokeColor=none;align=center;fillColor=none;html=1;verticalAlign=middle;whiteSpace=wrap;rounded=0;fontSize=17;" parent="1" vertex="1">
          <mxGeometry x="571" y="935" width="21" height="30" as="geometry" />
        </mxCell>
        <mxCell id="L-PkWKqUlunyUm9uGWdc-64" value="&lt;font size=&quot;1&quot; color=&quot;#000000&quot;&gt;&lt;b style=&quot;font-size: 18px;&quot;&gt;LSB Register&lt;/b&gt;&lt;/font&gt;" style="verticalAlign=top;align=center;shape=cube;size=10;direction=south;fontStyle=0;html=1;boundedLbl=1;spacingLeft=5;rounded=1;fillColor=#95F0E1;strokeColor=#10739e;strokeWidth=2;" parent="1" vertex="1">
          <mxGeometry x="223" y="1073" width="277" height="100" as="geometry" />
        </mxCell>
        <mxCell id="L-PkWKqUlunyUm9uGWdc-65" value="&lt;font size=&quot;1&quot; color=&quot;#000000&quot;&gt;&lt;b style=&quot;font-size: 18px;&quot;&gt;&amp;nbsp; &amp;nbsp; &amp;nbsp; &amp;nbsp; &amp;nbsp; &amp;nbsp; &amp;nbsp; &amp;nbsp; MSB Decoder&lt;/b&gt;&lt;/font&gt;" style="verticalAlign=top;align=left;shape=cube;size=10;direction=south;fontStyle=0;html=1;boundedLbl=1;spacingLeft=5;rounded=1;fillColor=#95F0E1;strokeColor=#10739e;strokeWidth=2;" parent="1" vertex="1">
          <mxGeometry x="221" y="850" width="279" height="198" as="geometry" />
        </mxCell>
        <mxCell id="L-PkWKqUlunyUm9uGWdc-66" style="html=1;fontColor=#000000;shadow=0;strokeColor=#006EAF;strokeWidth=4;rounded=0;" parent="1" source="L-PkWKqUlunyUm9uGWdc-64" edge="1">
          <mxGeometry relative="1" as="geometry">
            <mxPoint x="565" y="1124" as="targetPoint" />
            <mxPoint x="511.4" y="1123.8600000000001" as="sourcePoint" />
          </mxGeometry>
        </mxCell>
        <mxCell id="L-PkWKqUlunyUm9uGWdc-67" value="" style="shape=trapezoid;perimeter=trapezoidPerimeter;whiteSpace=wrap;html=1;fixedSize=1;strokeColor=#10739e;fillColor=#95F0E1;direction=south;strokeWidth=2;" parent="1" vertex="1">
          <mxGeometry x="670" y="893" width="42" height="279" as="geometry" />
        </mxCell>
        <mxCell id="L-PkWKqUlunyUm9uGWdc-68" style="edgeStyle=none;html=1;fontColor=#000000;shadow=0;strokeColor=#006EAF;strokeWidth=4;exitX=0.466;exitY=-0.004;exitDx=0;exitDy=0;exitPerimeter=0;" parent="1" source="L-PkWKqUlunyUm9uGWdc-67" edge="1">
          <mxGeometry relative="1" as="geometry">
            <mxPoint x="815" y="1023" as="targetPoint" />
            <mxPoint x="696" y="1022.9049111807733" as="sourcePoint" />
            <Array as="points">
              <mxPoint x="719" y="1023" />
            </Array>
          </mxGeometry>
        </mxCell>
        <mxCell id="L-PkWKqUlunyUm9uGWdc-69" value="" style="endArrow=classicThin;startArrow=none;endFill=1;startFill=0;endSize=8;html=1;verticalAlign=bottom;labelBackgroundColor=none;strokeWidth=2;shadow=0;sketch=0;fontColor=#000000;fillColor=#008a00;strokeColor=#005700;" parent="1" edge="1">
          <mxGeometry width="160" relative="1" as="geometry">
            <mxPoint x="50" y="960" as="sourcePoint" />
            <mxPoint x="220" y="960" as="targetPoint" />
          </mxGeometry>
        </mxCell>
        <mxCell id="L-PkWKqUlunyUm9uGWdc-70" value="" style="endArrow=classicThin;startArrow=none;endFill=1;startFill=0;endSize=8;html=1;verticalAlign=bottom;labelBackgroundColor=none;strokeWidth=2;shadow=0;sketch=0;fontColor=#000000;fillColor=#008a00;strokeColor=#005700;" parent="1" edge="1">
          <mxGeometry width="160" relative="1" as="geometry">
            <mxPoint x="50" y="988" as="sourcePoint" />
            <mxPoint x="220" y="988" as="targetPoint" />
          </mxGeometry>
        </mxCell>
        <mxCell id="L-PkWKqUlunyUm9uGWdc-71" value="&lt;font size=&quot;1&quot; color=&quot;#000000&quot;&gt;&lt;b style=&quot;font-size: 15px;&quot;&gt;Selector&lt;/b&gt;&lt;/font&gt;" style="text;strokeColor=none;align=center;fillColor=none;html=1;verticalAlign=middle;whiteSpace=wrap;rounded=0;direction=west;spacingRight=0;labelPosition=center;verticalLabelPosition=middle;flipV=0;flipH=1;rotation=90;" parent="1" vertex="1">
          <mxGeometry x="661" y="1018" width="60" height="14" as="geometry" />
        </mxCell>
        <mxCell id="L-PkWKqUlunyUm9uGWdc-72" style="edgeStyle=none;html=1;fontColor=#000000;shadow=0;strokeColor=#3700CC;fillColor=#6a00ff;strokeWidth=2;exitX=0.689;exitY=-0.001;exitDx=0;exitDy=0;exitPerimeter=0;" parent="1" source="L-PkWKqUlunyUm9uGWdc-65" edge="1">
          <mxGeometry relative="1" as="geometry">
            <mxPoint x="620" y="986" as="targetPoint" />
            <mxPoint x="510" y="986" as="sourcePoint" />
            <Array as="points" />
          </mxGeometry>
        </mxCell>
        <mxCell id="L-PkWKqUlunyUm9uGWdc-73" value="" style="edgeStyle=segmentEdgeStyle;endArrow=classic;html=1;curved=0;rounded=0;endSize=8;startSize=8;fontColor=#000000;strokeColor=#3700CC;fillColor=#6a00ff;strokeWidth=2;" parent="1" edge="1">
          <mxGeometry width="50" height="50" relative="1" as="geometry">
            <mxPoint x="620" y="1109" as="sourcePoint" />
            <mxPoint x="50" y="840" as="targetPoint" />
            <Array as="points">
              <mxPoint x="620" y="840" />
              <mxPoint x="85" y="840" />
            </Array>
          </mxGeometry>
        </mxCell>
        <mxCell id="L-PkWKqUlunyUm9uGWdc-74" style="edgeStyle=none;html=1;fontColor=#000000;shadow=0;strokeColor=#3700CC;fillColor=#6a00ff;strokeWidth=2;exitX=0.363;exitY=-0.001;exitDx=0;exitDy=0;exitPerimeter=0;" parent="1" source="L-PkWKqUlunyUm9uGWdc-64" edge="1">
          <mxGeometry relative="1" as="geometry">
            <mxPoint x="620" y="1109" as="targetPoint" />
            <mxPoint x="510" y="1109" as="sourcePoint" />
            <Array as="points">
              <mxPoint x="547" y="1109" />
            </Array>
          </mxGeometry>
        </mxCell>
        <mxCell id="L-PkWKqUlunyUm9uGWdc-75" value="" style="edgeStyle=none;orthogonalLoop=1;jettySize=auto;html=1;strokeColor=#006EAF;fillColor=#1ba1e2;strokeWidth=4;" parent="1" edge="1">
          <mxGeometry width="80" relative="1" as="geometry">
            <mxPoint x="40" y="1035" as="sourcePoint" />
            <mxPoint x="220" y="1035" as="targetPoint" />
            <Array as="points">
              <mxPoint x="195" y="1035" />
            </Array>
          </mxGeometry>
        </mxCell>
        <mxCell id="L-PkWKqUlunyUm9uGWdc-76" value="" style="edgeStyle=segmentEdgeStyle;endArrow=classic;html=1;curved=0;rounded=0;endSize=8;startSize=8;strokeColor=#006EAF;fillColor=#1ba1e2;strokeWidth=4;" parent="1" edge="1">
          <mxGeometry width="50" height="50" relative="1" as="geometry">
            <mxPoint x="160" y="1037" as="sourcePoint" />
            <mxPoint x="223" y="1101" as="targetPoint" />
            <Array as="points">
              <mxPoint x="160" y="1101" />
            </Array>
          </mxGeometry>
        </mxCell>
        <mxCell id="L-PkWKqUlunyUm9uGWdc-77" value="" style="endArrow=classicThin;startArrow=none;endFill=1;startFill=0;endSize=8;html=1;verticalAlign=bottom;labelBackgroundColor=none;strokeWidth=2;shadow=0;sketch=0;fontColor=#000000;fillColor=#008a00;strokeColor=#005700;" parent="1" edge="1">
          <mxGeometry width="160" relative="1" as="geometry">
            <mxPoint x="50" y="1134" as="sourcePoint" />
            <mxPoint x="222" y="1133.5" as="targetPoint" />
          </mxGeometry>
        </mxCell>
        <mxCell id="L-PkWKqUlunyUm9uGWdc-78" style="html=1;fontColor=#000000;shadow=0;strokeColor=#006EAF;strokeWidth=4;exitX=0.86;exitY=-0.002;exitDx=0;exitDy=0;exitPerimeter=0;" parent="1" source="L-PkWKqUlunyUm9uGWdc-65" edge="1">
          <mxGeometry relative="1" as="geometry">
            <mxPoint x="565" y="1020" as="targetPoint" />
            <mxPoint x="510.98" y="1020.01" as="sourcePoint" />
          </mxGeometry>
        </mxCell>
        <mxCell id="L-PkWKqUlunyUm9uGWdc-79" value="" style="endArrow=none;html=1;strokeColor=#006EAF;strokeWidth=2;" parent="1" edge="1">
          <mxGeometry width="50" height="50" relative="1" as="geometry">
            <mxPoint x="56" y="1045" as="sourcePoint" />
            <mxPoint x="76" y="1025" as="targetPoint" />
          </mxGeometry>
        </mxCell>
        <mxCell id="L-PkWKqUlunyUm9uGWdc-80" value="" style="endArrow=none;html=1;strokeColor=#006EAF;strokeWidth=2;" parent="1" edge="1">
          <mxGeometry width="50" height="50" relative="1" as="geometry">
            <mxPoint x="773" y="1032" as="sourcePoint" />
            <mxPoint x="793" y="1012" as="targetPoint" />
          </mxGeometry>
        </mxCell>
        <mxCell id="L-PkWKqUlunyUm9uGWdc-81" value="&lt;b&gt;&lt;font style=&quot;font-size: 17px;&quot;&gt;8b&lt;/font&gt;&lt;/b&gt;" style="text;strokeColor=none;align=center;fillColor=none;html=1;verticalAlign=middle;whiteSpace=wrap;rounded=0;fontColor=default;" parent="1" vertex="1">
          <mxGeometry x="47" y="1013" width="25" height="24" as="geometry" />
        </mxCell>
        <mxCell id="L-PkWKqUlunyUm9uGWdc-82" value="&lt;b&gt;&lt;font style=&quot;font-size: 17px;&quot;&gt;8b&lt;/font&gt;&lt;/b&gt;" style="text;strokeColor=none;align=center;fillColor=none;html=1;verticalAlign=middle;whiteSpace=wrap;rounded=0;" parent="1" vertex="1">
          <mxGeometry x="743" y="1000" width="70" height="25" as="geometry" />
        </mxCell>
        <mxCell id="L-PkWKqUlunyUm9uGWdc-83" value="&lt;b&gt;&lt;font style=&quot;font-size: 17px;&quot;&gt;dto&lt;/font&gt;&lt;/b&gt;" style="text;strokeColor=none;align=center;fillColor=none;html=1;verticalAlign=middle;whiteSpace=wrap;rounded=0;" parent="1" vertex="1">
          <mxGeometry x="737" y="1029" width="80.5" height="33" as="geometry" />
        </mxCell>
        <mxCell id="L-PkWKqUlunyUm9uGWdc-84" value="&lt;font style=&quot;font-size: 15px;&quot;&gt;&lt;i&gt;msb_read_m&lt;/i&gt;&lt;/font&gt;" style="text;strokeColor=none;align=center;fillColor=none;html=1;verticalAlign=middle;whiteSpace=wrap;rounded=0;fontSize=17;" parent="1" vertex="1">
          <mxGeometry x="114" y="933" width="60" height="35" as="geometry" />
        </mxCell>
        <mxCell id="L-PkWKqUlunyUm9uGWdc-85" value="&lt;font style=&quot;font-size: 15px;&quot;&gt;&lt;i&gt;msb_read_l&lt;/i&gt;&lt;/font&gt;" style="text;strokeColor=none;align=center;fillColor=none;html=1;verticalAlign=middle;whiteSpace=wrap;rounded=0;fontSize=17;" parent="1" vertex="1">
          <mxGeometry x="109" y="963" width="60" height="30" as="geometry" />
        </mxCell>
        <mxCell id="L-PkWKqUlunyUm9uGWdc-86" value="&lt;font style=&quot;font-size: 15px;&quot;&gt;&lt;i&gt;lsb_read_m&lt;/i&gt;&lt;/font&gt;" style="text;strokeColor=none;align=center;fillColor=none;html=1;verticalAlign=middle;whiteSpace=wrap;rounded=0;fontSize=17;" parent="1" vertex="1">
          <mxGeometry x="108" y="1109" width="60" height="30" as="geometry" />
        </mxCell>
        <mxCell id="L-PkWKqUlunyUm9uGWdc-87" value="&lt;font style=&quot;font-size: 15px;&quot;&gt;&lt;i&gt;lsb_read_l&lt;/i&gt;&lt;/font&gt;" style="text;strokeColor=none;align=center;fillColor=none;html=1;verticalAlign=middle;whiteSpace=wrap;rounded=0;fontSize=17;" parent="1" vertex="1">
          <mxGeometry x="103" y="1137" width="60" height="30" as="geometry" />
        </mxCell>
        <mxCell id="L-PkWKqUlunyUm9uGWdc-88" value="&lt;font style=&quot;font-size: 15px;&quot;&gt;&lt;i&gt;msb_can_read&lt;/i&gt;&lt;/font&gt;" style="text;strokeColor=none;align=center;fillColor=none;html=1;verticalAlign=middle;whiteSpace=wrap;rounded=0;fontSize=17;" parent="1" vertex="1">
          <mxGeometry x="526" y="959" width="60" height="30" as="geometry" />
        </mxCell>
        <mxCell id="L-PkWKqUlunyUm9uGWdc-89" value="&lt;font style=&quot;font-size: 15px;&quot;&gt;&lt;i&gt;lsb_can_read&lt;/i&gt;&lt;/font&gt;" style="text;strokeColor=none;align=center;fillColor=none;html=1;verticalAlign=middle;whiteSpace=wrap;rounded=0;fontSize=17;" parent="1" vertex="1">
          <mxGeometry x="519" y="1084" width="60" height="30" as="geometry" />
        </mxCell>
        <mxCell id="L-PkWKqUlunyUm9uGWdc-90" value="&lt;b&gt;&lt;font style=&quot;font-size: 17px;&quot;&gt;dti&lt;/font&gt;&lt;/b&gt;" style="text;strokeColor=none;align=center;fillColor=none;html=1;verticalAlign=middle;whiteSpace=wrap;rounded=0;" parent="1" vertex="1">
          <mxGeometry x="43" y="1045" width="40" height="30" as="geometry" />
        </mxCell>
        <mxCell id="L-PkWKqUlunyUm9uGWdc-91" value="&lt;font style=&quot;font-size: 15px;&quot;&gt;&lt;i&gt;top_can_read&lt;/i&gt;&lt;/font&gt;" style="text;strokeColor=none;align=center;fillColor=none;html=1;verticalAlign=middle;whiteSpace=wrap;rounded=0;fontSize=17;" parent="1" vertex="1">
          <mxGeometry x="115" y="814" width="60" height="30" as="geometry" />
        </mxCell>
        <mxCell id="L-PkWKqUlunyUm9uGWdc-92" value="" style="line;strokeWidth=4;rotatable=0;dashed=0;labelPosition=right;align=left;verticalAlign=middle;spacingTop=0;spacingLeft=6;points=[];portConstraint=eastwest;fillStyle=solid;strokeColor=#006eaf;fillColor=none;flipH=1;flipV=1;direction=south;" parent="1" vertex="1">
          <mxGeometry x="558" y="1020" width="10" height="104" as="geometry" />
        </mxCell>
        <mxCell id="L-PkWKqUlunyUm9uGWdc-93" style="html=1;fontColor=#000000;shadow=0;strokeColor=#006EAF;strokeWidth=4;exitX=0.54;exitY=0.653;exitDx=0;exitDy=0;exitPerimeter=0;entryX=0.625;entryY=1.011;entryDx=0;entryDy=0;entryPerimeter=0;" parent="1" source="L-PkWKqUlunyUm9uGWdc-92" target="L-PkWKqUlunyUm9uGWdc-67" edge="1">
          <mxGeometry relative="1" as="geometry">
            <mxPoint x="628" y="1066" as="targetPoint" />
            <mxPoint x="565" y="1066" as="sourcePoint" />
          </mxGeometry>
        </mxCell>
        <mxCell id="L-PkWKqUlunyUm9uGWdc-94" value="&lt;font style=&quot;font-size: 15px;&quot;&gt;&lt;i&gt;dto_lsb&lt;/i&gt;&lt;/font&gt;" style="text;strokeColor=none;align=center;fillColor=none;html=1;verticalAlign=middle;whiteSpace=wrap;rounded=0;fontSize=17;" parent="1" vertex="1">
          <mxGeometry x="506" y="1123" width="60" height="30" as="geometry" />
        </mxCell>
        <mxCell id="L-PkWKqUlunyUm9uGWdc-95" style="html=1;fontColor=#000000;shadow=0;strokeColor=#006EAF;strokeWidth=4;" parent="1" edge="1">
          <mxGeometry relative="1" as="geometry">
            <mxPoint x="670" y="952" as="targetPoint" />
            <mxPoint x="590" y="952" as="sourcePoint" />
          </mxGeometry>
        </mxCell>
        <mxCell id="L-PkWKqUlunyUm9uGWdc-96" value="&lt;b&gt;&lt;font style=&quot;font-size: 17px;&quot;&gt;8b&lt;/font&gt;&lt;/b&gt;" style="text;strokeColor=none;align=center;fillColor=none;html=1;verticalAlign=middle;whiteSpace=wrap;rounded=0;" parent="1" vertex="1">
          <mxGeometry x="601" y="930" width="62" height="25" as="geometry" />
        </mxCell>
        <mxCell id="L-PkWKqUlunyUm9uGWdc-97" value="" style="endArrow=none;html=1;strokeColor=#006EAF;strokeWidth=2;" parent="1" edge="1">
          <mxGeometry width="50" height="50" relative="1" as="geometry">
            <mxPoint x="632" y="959" as="sourcePoint" />
            <mxPoint x="652" y="939" as="targetPoint" />
          </mxGeometry>
        </mxCell>
        <mxCell id="L-PkWKqUlunyUm9uGWdc-98" value="" style="endArrow=classic;startArrow=none;endFill=1;startFill=0;html=1;verticalAlign=bottom;labelBackgroundColor=none;strokeWidth=2;shadow=0;sketch=0;fontColor=#000000;fillColor=#008a00;strokeColor=#005700;entryX=0.04;entryY=0.429;entryDx=0;entryDy=0;entryPerimeter=0;" parent="1" target="L-PkWKqUlunyUm9uGWdc-67" edge="1">
          <mxGeometry width="160" relative="1" as="geometry">
            <mxPoint x="830" y="833" as="sourcePoint" />
            <mxPoint x="730" y="833" as="targetPoint" />
            <Array as="points">
              <mxPoint x="755" y="833" />
              <mxPoint x="694" y="833" />
            </Array>
          </mxGeometry>
        </mxCell>
        <mxCell id="L-PkWKqUlunyUm9uGWdc-99" value="" style="endArrow=classicThin;startArrow=none;endFill=1;startFill=0;endSize=8;html=1;verticalAlign=bottom;labelBackgroundColor=none;strokeWidth=2;shadow=0;sketch=0;fontColor=#000000;fillColor=#008a00;strokeColor=#005700;exitX=0.125;exitY=-0.013;exitDx=0;exitDy=0;exitPerimeter=0;" parent="1" source="L-PkWKqUlunyUm9uGWdc-81" edge="1">
          <mxGeometry width="160" relative="1" as="geometry">
            <mxPoint x="70" y="1013" as="sourcePoint" />
            <mxPoint x="220" y="1013" as="targetPoint" />
          </mxGeometry>
        </mxCell>
        <mxCell id="L-PkWKqUlunyUm9uGWdc-100" value="&lt;font style=&quot;font-size: 15px;&quot;&gt;&lt;i&gt;msb_read_both&lt;/i&gt;&lt;/font&gt;" style="text;strokeColor=none;align=center;fillColor=none;html=1;verticalAlign=middle;whiteSpace=wrap;rounded=0;fontSize=17;" parent="1" vertex="1">
          <mxGeometry x="122" y="987" width="60" height="30" as="geometry" />
        </mxCell>
        <mxCell id="L-PkWKqUlunyUm9uGWdc-101" value="&lt;font style=&quot;font-size: 14px;&quot;&gt;HUFFMAN&amp;nbsp;&lt;/font&gt;&lt;div&gt;&lt;font style=&quot;font-size: 14px;&quot;&gt;DECODER&lt;/font&gt;&lt;/div&gt;" style="verticalAlign=top;align=center;shape=cube;size=10;direction=south;html=1;boundedLbl=1;spacingLeft=5;rounded=1;fillColor=#7CFA9B;fontColor=#000000;strokeColor=#000000;" parent="1" vertex="1">
          <mxGeometry x="362" y="960" width="92" height="60" as="geometry" />
        </mxCell>
        <mxCell id="L-PkWKqUlunyUm9uGWdc-102" value="" style="endArrow=classic;startArrow=classic;html=1;rounded=0;strokeColor=#006eaf;fontColor=default;entryX=1.016;entryY=0.815;entryDx=0;entryDy=0;entryPerimeter=0;strokeWidth=1;endSize=1;startSize=1;" parent="1" edge="1">
          <mxGeometry width="50" height="50" relative="1" as="geometry">
            <mxPoint x="300" y="960.5" as="sourcePoint" />
            <mxPoint x="299.9" y="946.8" as="targetPoint" />
          </mxGeometry>
        </mxCell>
        <mxCell id="L-PkWKqUlunyUm9uGWdc-103" value="&lt;font style=&quot;font-size: 14px;&quot;&gt;FIFO&lt;/font&gt;&lt;div&gt;&lt;font style=&quot;font-size: 14px;&quot;&gt;STORAGE&lt;/font&gt;&lt;/div&gt;" style="verticalAlign=top;align=center;shape=cube;size=10;direction=south;html=1;boundedLbl=1;spacingLeft=5;rounded=1;fillColor=#7CFA9B;fontColor=#000000;strokeColor=#000000;" parent="1" vertex="1">
          <mxGeometry x="250" y="960" width="90" height="60" as="geometry" />
        </mxCell>
        <mxCell id="L-PkWKqUlunyUm9uGWdc-104" value="&lt;font style=&quot;font-size: 15px;&quot;&gt;REGISTER&lt;/font&gt;" style="verticalAlign=top;align=left;shape=cube;size=10;direction=south;html=1;boundedLbl=1;spacingLeft=5;rounded=1;fillColor=#7CFA9B;fontColor=#000000;strokeColor=#000000;" parent="1" vertex="1">
          <mxGeometry x="302" y="1119" width="101" height="44" as="geometry" />
        </mxCell>
        <mxCell id="L-PkWKqUlunyUm9uGWdc-105" value="&lt;font style=&quot;font-size: 14px;&quot; color=&quot;#000000&quot;&gt;&lt;b style=&quot;&quot;&gt;DECODING&amp;nbsp;&lt;/b&gt;&lt;/font&gt;&lt;div&gt;&lt;font style=&quot;font-size: 14px;&quot; color=&quot;#000000&quot;&gt;&lt;b style=&quot;&quot;&gt;COORDINATOR&lt;/b&gt;&lt;/font&gt;&lt;/div&gt;" style="verticalAlign=top;align=center;shape=cube;size=10;direction=south;fontStyle=0;html=1;boundedLbl=1;spacingLeft=5;rounded=1;fillColor=#95F0E1;strokeColor=#10739e;strokeWidth=2;" parent="1" vertex="1">
          <mxGeometry x="292" y="896" width="140" height="50" as="geometry" />
        </mxCell>
        <mxCell id="L-PkWKqUlunyUm9uGWdc-106" value="" style="endArrow=classicThin;startArrow=none;endFill=1;startFill=0;endSize=8;html=1;verticalAlign=bottom;labelBackgroundColor=none;strokeWidth=2;shadow=0;sketch=0;fontColor=#000000;fillColor=#008a00;strokeColor=#005700;" parent="1" edge="1">
          <mxGeometry width="160" relative="1" as="geometry">
            <mxPoint x="50" y="1163" as="sourcePoint" />
            <mxPoint x="223" y="1163.5" as="targetPoint" />
          </mxGeometry>
        </mxCell>
        <mxCell id="L-PkWKqUlunyUm9uGWdc-107" value="&lt;b&gt;&lt;font style=&quot;font-size: 17px;&quot;&gt;give_output&lt;/font&gt;&lt;/b&gt;" style="text;strokeColor=none;align=center;fillColor=none;html=1;verticalAlign=middle;whiteSpace=wrap;rounded=0;" parent="1" vertex="1">
          <mxGeometry x="716" y="802" width="125" height="30" as="geometry" />
        </mxCell>
        <mxCell id="L-PkWKqUlunyUm9uGWdc-108" value="&lt;font style=&quot;font-size: 15px;&quot;&gt;&lt;i&gt;dto_msb&lt;/i&gt;&lt;/font&gt;" style="text;strokeColor=none;align=center;fillColor=none;html=1;verticalAlign=middle;whiteSpace=wrap;rounded=0;fontSize=17;" parent="1" vertex="1">
          <mxGeometry x="503" y="989" width="60" height="30" as="geometry" />
        </mxCell>
        <mxCell id="L-PkWKqUlunyUm9uGWdc-109" value="" style="endArrow=classic;startArrow=classic;html=1;rounded=0;strokeColor=#006eaf;fontColor=default;entryX=1.016;entryY=0.815;entryDx=0;entryDy=0;entryPerimeter=0;strokeWidth=1;endSize=1;startSize=1;" parent="1" edge="1">
          <mxGeometry width="50" height="50" relative="1" as="geometry">
            <mxPoint x="413" y="960" as="sourcePoint" />
            <mxPoint x="413" y="946.5" as="targetPoint" />
          </mxGeometry>
        </mxCell>
        <mxCell id="L-PkWKqUlunyUm9uGWdc-110" value="" style="endArrow=classicThin;startArrow=none;endFill=1;startFill=0;endSize=8;html=1;verticalAlign=bottom;labelBackgroundColor=none;strokeWidth=2;shadow=0;sketch=0;fontColor=#000000;fillColor=#008a00;strokeColor=#005700;" parent="1" edge="1">
          <mxGeometry width="160" relative="1" as="geometry">
            <mxPoint x="50" y="930" as="sourcePoint" />
            <mxPoint x="220" y="930" as="targetPoint" />
          </mxGeometry>
        </mxCell>
        <mxCell id="L-PkWKqUlunyUm9uGWdc-111" value="&lt;font style=&quot;font-size: 15px;&quot;&gt;&lt;i&gt;bypass_decoding&lt;/i&gt;&lt;/font&gt;" style="text;strokeColor=none;align=center;fillColor=none;html=1;verticalAlign=middle;whiteSpace=wrap;rounded=0;fontSize=17;" parent="1" vertex="1">
          <mxGeometry x="115" y="900" width="60" height="35" as="geometry" />
        </mxCell>
        <mxCell id="L-PkWKqUlunyUm9uGWdc-112" value="" style="rounded=0;whiteSpace=wrap;html=1;fillStyle=solid;strokeColor=#000000;strokeWidth=3;fillColor=none;" parent="1" vertex="1">
          <mxGeometry x="119" y="1370" width="640" height="520.5" as="geometry" />
        </mxCell>
        <mxCell id="L-PkWKqUlunyUm9uGWdc-113" value="&lt;font size=&quot;1&quot; color=&quot;#000000&quot;&gt;&lt;b style=&quot;font-size: 18px;&quot;&gt;LSB Register&lt;/b&gt;&lt;/font&gt;" style="verticalAlign=top;align=center;shape=cube;size=10;direction=south;fontStyle=0;html=1;boundedLbl=1;spacingLeft=5;rounded=1;fillColor=#95F0E1;strokeColor=#10739e;strokeWidth=2;" parent="1" vertex="1">
          <mxGeometry x="262" y="1781" width="277" height="100" as="geometry" />
        </mxCell>
        <mxCell id="L-PkWKqUlunyUm9uGWdc-114" value="&lt;font style=&quot;font-size: 15px;&quot;&gt;&lt;i&gt;&#39;0&#39;&lt;/i&gt;&lt;/font&gt;" style="text;strokeColor=none;align=center;fillColor=none;html=1;verticalAlign=middle;whiteSpace=wrap;rounded=0;fontSize=17;" parent="1" vertex="1">
          <mxGeometry x="621" y="1640" width="21" height="30" as="geometry" />
        </mxCell>
        <mxCell id="L-PkWKqUlunyUm9uGWdc-115" value="&lt;font size=&quot;1&quot; color=&quot;#000000&quot;&gt;&lt;b style=&quot;font-size: 18px;&quot;&gt;&amp;nbsp; &amp;nbsp; &amp;nbsp; &amp;nbsp; &amp;nbsp; &amp;nbsp; &amp;nbsp; &amp;nbsp; MSB Decoder&lt;/b&gt;&lt;/font&gt;" style="verticalAlign=top;align=left;shape=cube;size=10;direction=south;fontStyle=0;html=1;boundedLbl=1;spacingLeft=5;rounded=1;fillColor=#95F0E1;strokeColor=#10739e;strokeWidth=2;" parent="1" vertex="1">
          <mxGeometry x="260" y="1558" width="279" height="198" as="geometry" />
        </mxCell>
        <mxCell id="L-PkWKqUlunyUm9uGWdc-116" style="html=1;fontColor=#000000;shadow=0;strokeColor=#006EAF;strokeWidth=4;rounded=0;" parent="1" source="L-PkWKqUlunyUm9uGWdc-113" edge="1">
          <mxGeometry relative="1" as="geometry">
            <mxPoint x="604" y="1832" as="targetPoint" />
            <mxPoint x="550.4" y="1831.8600000000001" as="sourcePoint" />
          </mxGeometry>
        </mxCell>
        <mxCell id="L-PkWKqUlunyUm9uGWdc-117" value="" style="shape=trapezoid;perimeter=trapezoidPerimeter;whiteSpace=wrap;html=1;fixedSize=1;strokeColor=#10739e;fillColor=#95F0E1;direction=south;strokeWidth=2;" parent="1" vertex="1">
          <mxGeometry x="709" y="1601" width="42" height="279" as="geometry" />
        </mxCell>
        <mxCell id="L-PkWKqUlunyUm9uGWdc-118" style="edgeStyle=none;html=1;fontColor=#000000;shadow=0;strokeColor=#006EAF;strokeWidth=4;exitX=0.466;exitY=-0.004;exitDx=0;exitDy=0;exitPerimeter=0;" parent="1" source="L-PkWKqUlunyUm9uGWdc-117" edge="1">
          <mxGeometry relative="1" as="geometry">
            <mxPoint x="854" y="1731" as="targetPoint" />
            <mxPoint x="735" y="1730.9049111807733" as="sourcePoint" />
            <Array as="points">
              <mxPoint x="758" y="1731" />
            </Array>
          </mxGeometry>
        </mxCell>
        <mxCell id="L-PkWKqUlunyUm9uGWdc-119" value="" style="endArrow=classicThin;startArrow=none;endFill=1;startFill=0;endSize=8;html=1;verticalAlign=bottom;labelBackgroundColor=none;strokeWidth=2;shadow=0;sketch=0;fontColor=#000000;fillColor=#008a00;strokeColor=#005700;" parent="1" edge="1">
          <mxGeometry width="160" relative="1" as="geometry">
            <mxPoint x="89" y="1668" as="sourcePoint" />
            <mxPoint x="259" y="1668" as="targetPoint" />
          </mxGeometry>
        </mxCell>
        <mxCell id="L-PkWKqUlunyUm9uGWdc-120" value="" style="endArrow=classicThin;startArrow=none;endFill=1;startFill=0;endSize=8;html=1;verticalAlign=bottom;labelBackgroundColor=none;strokeWidth=2;shadow=0;sketch=0;fontColor=#000000;fillColor=#008a00;strokeColor=#005700;" parent="1" edge="1">
          <mxGeometry width="160" relative="1" as="geometry">
            <mxPoint x="89" y="1696" as="sourcePoint" />
            <mxPoint x="259" y="1696" as="targetPoint" />
          </mxGeometry>
        </mxCell>
        <mxCell id="L-PkWKqUlunyUm9uGWdc-121" value="&lt;font size=&quot;1&quot; color=&quot;#000000&quot;&gt;&lt;b style=&quot;font-size: 15px;&quot;&gt;Selector&lt;/b&gt;&lt;/font&gt;" style="text;strokeColor=none;align=center;fillColor=none;html=1;verticalAlign=middle;whiteSpace=wrap;rounded=0;direction=west;spacingRight=0;labelPosition=center;verticalLabelPosition=middle;flipV=0;flipH=1;rotation=90;" parent="1" vertex="1">
          <mxGeometry x="700" y="1726" width="60" height="14" as="geometry" />
        </mxCell>
        <mxCell id="L-PkWKqUlunyUm9uGWdc-122" style="edgeStyle=none;html=1;fontColor=#000000;shadow=0;strokeColor=#3700CC;fillColor=#6a00ff;strokeWidth=2;exitX=0.689;exitY=-0.001;exitDx=0;exitDy=0;exitPerimeter=0;" parent="1" source="L-PkWKqUlunyUm9uGWdc-115" edge="1">
          <mxGeometry relative="1" as="geometry">
            <mxPoint x="660" y="1694" as="targetPoint" />
            <mxPoint x="549" y="1694" as="sourcePoint" />
            <Array as="points" />
          </mxGeometry>
        </mxCell>
        <mxCell id="L-PkWKqUlunyUm9uGWdc-123" value="" style="edgeStyle=segmentEdgeStyle;endArrow=classic;html=1;curved=0;rounded=0;endSize=8;startSize=8;fontColor=#000000;strokeColor=#3700CC;fillColor=#6a00ff;strokeWidth=2;" parent="1" edge="1">
          <mxGeometry width="50" height="50" relative="1" as="geometry">
            <mxPoint x="661" y="1817" as="sourcePoint" />
            <mxPoint x="90" y="1400" as="targetPoint" />
            <Array as="points">
              <mxPoint x="661" y="1400" />
            </Array>
          </mxGeometry>
        </mxCell>
        <mxCell id="L-PkWKqUlunyUm9uGWdc-124" style="edgeStyle=none;html=1;fontColor=#000000;shadow=0;strokeColor=#3700CC;fillColor=#6a00ff;strokeWidth=2;exitX=0.363;exitY=-0.001;exitDx=0;exitDy=0;exitPerimeter=0;" parent="1" source="L-PkWKqUlunyUm9uGWdc-113" edge="1">
          <mxGeometry relative="1" as="geometry">
            <mxPoint x="660" y="1817" as="targetPoint" />
            <mxPoint x="549" y="1817" as="sourcePoint" />
            <Array as="points">
              <mxPoint x="586" y="1817" />
            </Array>
          </mxGeometry>
        </mxCell>
        <mxCell id="L-PkWKqUlunyUm9uGWdc-125" value="" style="edgeStyle=none;orthogonalLoop=1;jettySize=auto;html=1;strokeColor=#006EAF;fillColor=#1ba1e2;strokeWidth=4;" parent="1" edge="1">
          <mxGeometry width="80" relative="1" as="geometry">
            <mxPoint x="79" y="1743" as="sourcePoint" />
            <mxPoint x="259" y="1743" as="targetPoint" />
            <Array as="points">
              <mxPoint x="234" y="1743" />
            </Array>
          </mxGeometry>
        </mxCell>
        <mxCell id="L-PkWKqUlunyUm9uGWdc-126" value="" style="edgeStyle=segmentEdgeStyle;endArrow=classic;html=1;curved=0;rounded=0;endSize=8;startSize=8;strokeColor=#006EAF;fillColor=#1ba1e2;strokeWidth=4;" parent="1" edge="1">
          <mxGeometry width="50" height="50" relative="1" as="geometry">
            <mxPoint x="199" y="1745" as="sourcePoint" />
            <mxPoint x="262" y="1809" as="targetPoint" />
            <Array as="points">
              <mxPoint x="199" y="1809" />
            </Array>
          </mxGeometry>
        </mxCell>
        <mxCell id="L-PkWKqUlunyUm9uGWdc-127" value="" style="endArrow=classicThin;startArrow=none;endFill=1;startFill=0;endSize=8;html=1;verticalAlign=bottom;labelBackgroundColor=none;strokeWidth=2;shadow=0;sketch=0;fontColor=#000000;fillColor=#008a00;strokeColor=#005700;" parent="1" edge="1">
          <mxGeometry width="160" relative="1" as="geometry">
            <mxPoint x="89" y="1842" as="sourcePoint" />
            <mxPoint x="261" y="1841.5" as="targetPoint" />
          </mxGeometry>
        </mxCell>
        <mxCell id="L-PkWKqUlunyUm9uGWdc-128" style="html=1;fontColor=#000000;shadow=0;strokeColor=#006EAF;strokeWidth=4;exitX=0.86;exitY=-0.002;exitDx=0;exitDy=0;exitPerimeter=0;" parent="1" source="L-PkWKqUlunyUm9uGWdc-115" edge="1">
          <mxGeometry relative="1" as="geometry">
            <mxPoint x="604" y="1728" as="targetPoint" />
            <mxPoint x="549.98" y="1728.01" as="sourcePoint" />
          </mxGeometry>
        </mxCell>
        <mxCell id="L-PkWKqUlunyUm9uGWdc-129" value="" style="endArrow=none;html=1;strokeColor=#006EAF;strokeWidth=2;" parent="1" edge="1">
          <mxGeometry width="50" height="50" relative="1" as="geometry">
            <mxPoint x="95" y="1753" as="sourcePoint" />
            <mxPoint x="115" y="1733" as="targetPoint" />
          </mxGeometry>
        </mxCell>
        <mxCell id="L-PkWKqUlunyUm9uGWdc-130" value="" style="endArrow=none;html=1;strokeColor=#006EAF;strokeWidth=2;" parent="1" edge="1">
          <mxGeometry width="50" height="50" relative="1" as="geometry">
            <mxPoint x="812" y="1740" as="sourcePoint" />
            <mxPoint x="832" y="1720" as="targetPoint" />
          </mxGeometry>
        </mxCell>
        <mxCell id="L-PkWKqUlunyUm9uGWdc-131" value="&lt;b&gt;&lt;font style=&quot;font-size: 17px;&quot;&gt;8b&lt;/font&gt;&lt;/b&gt;" style="text;strokeColor=none;align=center;fillColor=none;html=1;verticalAlign=middle;whiteSpace=wrap;rounded=0;fontColor=default;" parent="1" vertex="1">
          <mxGeometry x="86" y="1721" width="25" height="24" as="geometry" />
        </mxCell>
        <mxCell id="L-PkWKqUlunyUm9uGWdc-132" value="&lt;b&gt;&lt;font style=&quot;font-size: 17px;&quot;&gt;8b&lt;/font&gt;&lt;/b&gt;" style="text;strokeColor=none;align=center;fillColor=none;html=1;verticalAlign=middle;whiteSpace=wrap;rounded=0;" parent="1" vertex="1">
          <mxGeometry x="779" y="1708" width="70" height="25" as="geometry" />
        </mxCell>
        <mxCell id="L-PkWKqUlunyUm9uGWdc-133" value="&lt;b&gt;&lt;font style=&quot;font-size: 17px;&quot;&gt;dto&lt;/font&gt;&lt;/b&gt;" style="text;strokeColor=none;align=center;fillColor=none;html=1;verticalAlign=middle;whiteSpace=wrap;rounded=0;" parent="1" vertex="1">
          <mxGeometry x="776" y="1737" width="80.5" height="33" as="geometry" />
        </mxCell>
        <mxCell id="L-PkWKqUlunyUm9uGWdc-134" value="&lt;font style=&quot;font-size: 15px;&quot;&gt;&lt;i&gt;msb_read_m&lt;/i&gt;&lt;/font&gt;" style="text;strokeColor=none;align=center;fillColor=none;html=1;verticalAlign=middle;whiteSpace=wrap;rounded=0;fontSize=17;" parent="1" vertex="1">
          <mxGeometry x="153" y="1639" width="60" height="35" as="geometry" />
        </mxCell>
        <mxCell id="L-PkWKqUlunyUm9uGWdc-135" value="&lt;font style=&quot;font-size: 15px;&quot;&gt;&lt;i&gt;msb_read_l&lt;/i&gt;&lt;/font&gt;" style="text;strokeColor=none;align=center;fillColor=none;html=1;verticalAlign=middle;whiteSpace=wrap;rounded=0;fontSize=17;" parent="1" vertex="1">
          <mxGeometry x="148" y="1670" width="60" height="30" as="geometry" />
        </mxCell>
        <mxCell id="L-PkWKqUlunyUm9uGWdc-136" value="&lt;font style=&quot;font-size: 15px;&quot;&gt;&lt;i&gt;lsb_read_m&lt;/i&gt;&lt;/font&gt;" style="text;strokeColor=none;align=center;fillColor=none;html=1;verticalAlign=middle;whiteSpace=wrap;rounded=0;fontSize=17;" parent="1" vertex="1">
          <mxGeometry x="147" y="1816" width="60" height="30" as="geometry" />
        </mxCell>
        <mxCell id="L-PkWKqUlunyUm9uGWdc-137" value="&lt;font style=&quot;font-size: 15px;&quot;&gt;&lt;i&gt;lsb_read_l&lt;/i&gt;&lt;/font&gt;" style="text;strokeColor=none;align=center;fillColor=none;html=1;verticalAlign=middle;whiteSpace=wrap;rounded=0;fontSize=17;" parent="1" vertex="1">
          <mxGeometry x="142" y="1845" width="60" height="30" as="geometry" />
        </mxCell>
        <mxCell id="L-PkWKqUlunyUm9uGWdc-138" value="&lt;font style=&quot;font-size: 15px;&quot;&gt;&lt;i&gt;msb_can_read&lt;/i&gt;&lt;/font&gt;" style="text;strokeColor=none;align=center;fillColor=none;html=1;verticalAlign=middle;whiteSpace=wrap;rounded=0;fontSize=17;" parent="1" vertex="1">
          <mxGeometry x="561" y="1667" width="60" height="30" as="geometry" />
        </mxCell>
        <mxCell id="L-PkWKqUlunyUm9uGWdc-139" value="&lt;font style=&quot;font-size: 15px;&quot;&gt;&lt;i&gt;lsb_can_read&lt;/i&gt;&lt;/font&gt;" style="text;strokeColor=none;align=center;fillColor=none;html=1;verticalAlign=middle;whiteSpace=wrap;rounded=0;fontSize=17;" parent="1" vertex="1">
          <mxGeometry x="558" y="1791" width="60" height="30" as="geometry" />
        </mxCell>
        <mxCell id="L-PkWKqUlunyUm9uGWdc-140" value="&lt;b&gt;&lt;font style=&quot;font-size: 17px;&quot;&gt;dti&lt;/font&gt;&lt;/b&gt;" style="text;strokeColor=none;align=center;fillColor=none;html=1;verticalAlign=middle;whiteSpace=wrap;rounded=0;" parent="1" vertex="1">
          <mxGeometry x="82" y="1753" width="40" height="30" as="geometry" />
        </mxCell>
        <mxCell id="L-PkWKqUlunyUm9uGWdc-141" value="&lt;font style=&quot;font-size: 15px;&quot;&gt;&lt;i&gt;top_can_read&lt;/i&gt;&lt;/font&gt;" style="text;strokeColor=none;align=center;fillColor=none;html=1;verticalAlign=middle;whiteSpace=wrap;rounded=0;fontSize=17;" parent="1" vertex="1">
          <mxGeometry x="149" y="1375" width="60" height="30" as="geometry" />
        </mxCell>
        <mxCell id="L-PkWKqUlunyUm9uGWdc-142" value="" style="line;strokeWidth=4;rotatable=0;dashed=0;labelPosition=right;align=left;verticalAlign=middle;spacingTop=0;spacingLeft=6;points=[];portConstraint=eastwest;fillStyle=solid;strokeColor=#006eaf;fillColor=none;flipH=1;flipV=1;direction=south;" parent="1" vertex="1">
          <mxGeometry x="597" y="1728" width="10" height="104" as="geometry" />
        </mxCell>
        <mxCell id="L-PkWKqUlunyUm9uGWdc-143" style="html=1;fontColor=#000000;shadow=0;strokeColor=#006EAF;strokeWidth=4;exitX=0.54;exitY=0.653;exitDx=0;exitDy=0;exitPerimeter=0;entryX=0.625;entryY=1.011;entryDx=0;entryDy=0;entryPerimeter=0;" parent="1" source="L-PkWKqUlunyUm9uGWdc-142" target="L-PkWKqUlunyUm9uGWdc-117" edge="1">
          <mxGeometry relative="1" as="geometry">
            <mxPoint x="667" y="1774" as="targetPoint" />
            <mxPoint x="604" y="1774" as="sourcePoint" />
          </mxGeometry>
        </mxCell>
        <mxCell id="L-PkWKqUlunyUm9uGWdc-144" value="&lt;font style=&quot;font-size: 15px;&quot;&gt;&lt;i&gt;dto_lsb&lt;/i&gt;&lt;/font&gt;" style="text;strokeColor=none;align=center;fillColor=none;html=1;verticalAlign=middle;whiteSpace=wrap;rounded=0;fontSize=17;" parent="1" vertex="1">
          <mxGeometry x="545" y="1831" width="60" height="30" as="geometry" />
        </mxCell>
        <mxCell id="L-PkWKqUlunyUm9uGWdc-145" style="html=1;fontColor=#000000;shadow=0;strokeColor=#006EAF;strokeWidth=4;exitX=0;exitY=0.88;exitDx=0;exitDy=0;exitPerimeter=0;entryX=0.201;entryY=1.016;entryDx=0;entryDy=0;entryPerimeter=0;" parent="1" edge="1">
          <mxGeometry relative="1" as="geometry">
            <mxPoint x="708.3280000000002" y="1657.239" as="targetPoint" />
            <mxPoint x="640" y="1657.7600000000002" as="sourcePoint" />
          </mxGeometry>
        </mxCell>
        <mxCell id="L-PkWKqUlunyUm9uGWdc-146" value="&lt;b&gt;&lt;font style=&quot;font-size: 17px;&quot;&gt;8b&lt;/font&gt;&lt;/b&gt;" style="text;strokeColor=none;align=center;fillColor=none;html=1;verticalAlign=middle;whiteSpace=wrap;rounded=0;container=0;" parent="1" vertex="1">
          <mxGeometry x="642" y="1639" width="60" height="20" as="geometry" />
        </mxCell>
        <mxCell id="L-PkWKqUlunyUm9uGWdc-147" value="" style="endArrow=none;html=1;strokeColor=#006EAF;strokeWidth=2;" parent="1" edge="1">
          <mxGeometry width="50" height="50" relative="1" as="geometry">
            <mxPoint x="673" y="1665" as="sourcePoint" />
            <mxPoint x="693" y="1645" as="targetPoint" />
          </mxGeometry>
        </mxCell>
        <mxCell id="L-PkWKqUlunyUm9uGWdc-148" value="" style="endArrow=classic;startArrow=none;endFill=1;startFill=0;html=1;verticalAlign=bottom;labelBackgroundColor=none;strokeWidth=2;shadow=0;sketch=0;fontColor=#000000;fillColor=#008a00;strokeColor=#005700;exitX=0.67;exitY=1.021;exitDx=0;exitDy=0;exitPerimeter=0;entryX=0.368;entryY=0.002;entryDx=0;entryDy=0;entryPerimeter=0;" parent="1" source="L-PkWKqUlunyUm9uGWdc-157" target="L-PkWKqUlunyUm9uGWdc-162" edge="1">
          <mxGeometry width="160" relative="1" as="geometry">
            <mxPoint x="830" y="1500" as="sourcePoint" />
            <mxPoint x="540" y="1460" as="targetPoint" />
            <Array as="points">
              <mxPoint x="794" y="1461" />
              <mxPoint x="733" y="1461" />
              <mxPoint x="610" y="1460" />
            </Array>
          </mxGeometry>
        </mxCell>
        <mxCell id="L-PkWKqUlunyUm9uGWdc-149" value="" style="endArrow=classicThin;startArrow=none;endFill=1;startFill=0;endSize=8;html=1;verticalAlign=bottom;labelBackgroundColor=none;strokeWidth=2;shadow=0;sketch=0;fontColor=#000000;fillColor=#008a00;strokeColor=#005700;exitX=0.125;exitY=-0.013;exitDx=0;exitDy=0;exitPerimeter=0;" parent="1" source="L-PkWKqUlunyUm9uGWdc-131" edge="1">
          <mxGeometry width="160" relative="1" as="geometry">
            <mxPoint x="109" y="1721" as="sourcePoint" />
            <mxPoint x="259" y="1721" as="targetPoint" />
          </mxGeometry>
        </mxCell>
        <mxCell id="L-PkWKqUlunyUm9uGWdc-150" value="&lt;font style=&quot;font-size: 15px;&quot;&gt;&lt;i&gt;msb_read_both&lt;/i&gt;&lt;/font&gt;" style="text;strokeColor=none;align=center;fillColor=none;html=1;verticalAlign=middle;whiteSpace=wrap;rounded=0;fontSize=17;" parent="1" vertex="1">
          <mxGeometry x="161" y="1695" width="60" height="30" as="geometry" />
        </mxCell>
        <mxCell id="L-PkWKqUlunyUm9uGWdc-151" value="&lt;font style=&quot;font-size: 14px;&quot;&gt;HUFFMAN&amp;nbsp;&lt;/font&gt;&lt;div&gt;&lt;font style=&quot;font-size: 14px;&quot;&gt;DECODER&lt;/font&gt;&lt;/div&gt;" style="verticalAlign=top;align=center;shape=cube;size=10;direction=south;html=1;boundedLbl=1;spacingLeft=5;rounded=1;fillColor=#7CFA9B;fontColor=#000000;strokeColor=#000000;" parent="1" vertex="1">
          <mxGeometry x="401" y="1668" width="92" height="60" as="geometry" />
        </mxCell>
        <mxCell id="L-PkWKqUlunyUm9uGWdc-152" value="" style="endArrow=classic;startArrow=classic;html=1;rounded=0;strokeColor=#006eaf;fontColor=default;entryX=1.016;entryY=0.815;entryDx=0;entryDy=0;entryPerimeter=0;strokeWidth=1;endSize=1;startSize=1;" parent="1" edge="1">
          <mxGeometry width="50" height="50" relative="1" as="geometry">
            <mxPoint x="339" y="1668.5" as="sourcePoint" />
            <mxPoint x="338.9" y="1654.8" as="targetPoint" />
          </mxGeometry>
        </mxCell>
        <mxCell id="L-PkWKqUlunyUm9uGWdc-153" value="&lt;font style=&quot;font-size: 14px;&quot;&gt;FIFO&lt;/font&gt;&lt;div&gt;&lt;font style=&quot;font-size: 14px;&quot;&gt;STORAGE&lt;/font&gt;&lt;/div&gt;" style="verticalAlign=top;align=center;shape=cube;size=10;direction=south;html=1;boundedLbl=1;spacingLeft=5;rounded=1;fillColor=#7CFA9B;fontColor=#000000;strokeColor=#000000;" parent="1" vertex="1">
          <mxGeometry x="289" y="1668" width="90" height="60" as="geometry" />
        </mxCell>
        <mxCell id="L-PkWKqUlunyUm9uGWdc-154" value="&lt;font style=&quot;font-size: 15px;&quot;&gt;REGISTER&lt;/font&gt;" style="verticalAlign=top;align=left;shape=cube;size=10;direction=south;html=1;boundedLbl=1;spacingLeft=5;rounded=1;fillColor=#7CFA9B;fontColor=#000000;strokeColor=#000000;" parent="1" vertex="1">
          <mxGeometry x="341" y="1827" width="101" height="44" as="geometry" />
        </mxCell>
        <mxCell id="L-PkWKqUlunyUm9uGWdc-155" value="&lt;font style=&quot;font-size: 14px;&quot; color=&quot;#000000&quot;&gt;&lt;b style=&quot;&quot;&gt;DECODING&amp;nbsp;&lt;/b&gt;&lt;/font&gt;&lt;div&gt;&lt;font style=&quot;font-size: 14px;&quot; color=&quot;#000000&quot;&gt;&lt;b style=&quot;&quot;&gt;COORDINATOR&lt;/b&gt;&lt;/font&gt;&lt;/div&gt;" style="verticalAlign=top;align=center;shape=cube;size=10;direction=south;fontStyle=0;html=1;boundedLbl=1;spacingLeft=5;rounded=1;fillColor=#95F0E1;strokeColor=#10739e;strokeWidth=2;" parent="1" vertex="1">
          <mxGeometry x="331" y="1604" width="140" height="50" as="geometry" />
        </mxCell>
        <mxCell id="L-PkWKqUlunyUm9uGWdc-156" value="" style="endArrow=classicThin;startArrow=none;endFill=1;startFill=0;endSize=8;html=1;verticalAlign=bottom;labelBackgroundColor=none;strokeWidth=2;shadow=0;sketch=0;fontColor=#000000;fillColor=#008a00;strokeColor=#005700;" parent="1" edge="1">
          <mxGeometry width="160" relative="1" as="geometry">
            <mxPoint x="89" y="1871" as="sourcePoint" />
            <mxPoint x="262" y="1871.5" as="targetPoint" />
          </mxGeometry>
        </mxCell>
        <mxCell id="L-PkWKqUlunyUm9uGWdc-157" value="&lt;b&gt;&lt;font style=&quot;font-size: 17px;&quot;&gt;give_output&lt;/font&gt;&lt;/b&gt;" style="text;strokeColor=none;align=center;fillColor=none;html=1;verticalAlign=middle;whiteSpace=wrap;rounded=0;" parent="1" vertex="1">
          <mxGeometry x="747" y="1430" width="125" height="30" as="geometry" />
        </mxCell>
        <mxCell id="L-PkWKqUlunyUm9uGWdc-158" value="&lt;font style=&quot;font-size: 15px;&quot;&gt;&lt;i&gt;dto_msb&lt;/i&gt;&lt;/font&gt;" style="text;strokeColor=none;align=center;fillColor=none;html=1;verticalAlign=middle;whiteSpace=wrap;rounded=0;fontSize=17;" parent="1" vertex="1">
          <mxGeometry x="540" y="1697" width="60" height="30" as="geometry" />
        </mxCell>
        <mxCell id="L-PkWKqUlunyUm9uGWdc-159" value="" style="endArrow=classic;startArrow=classic;html=1;rounded=0;strokeColor=#006eaf;fontColor=default;entryX=1.016;entryY=0.815;entryDx=0;entryDy=0;entryPerimeter=0;strokeWidth=1;endSize=1;startSize=1;" parent="1" edge="1">
          <mxGeometry width="50" height="50" relative="1" as="geometry">
            <mxPoint x="452" y="1668" as="sourcePoint" />
            <mxPoint x="452" y="1654.5" as="targetPoint" />
          </mxGeometry>
        </mxCell>
        <mxCell id="L-PkWKqUlunyUm9uGWdc-160" value="" style="endArrow=classicThin;startArrow=none;endFill=1;startFill=0;endSize=8;html=1;verticalAlign=bottom;labelBackgroundColor=none;strokeWidth=2;shadow=0;sketch=0;fontColor=#000000;fillColor=#008a00;strokeColor=#005700;" parent="1" edge="1">
          <mxGeometry width="160" relative="1" as="geometry">
            <mxPoint x="89" y="1638" as="sourcePoint" />
            <mxPoint x="259" y="1638" as="targetPoint" />
          </mxGeometry>
        </mxCell>
        <mxCell id="L-PkWKqUlunyUm9uGWdc-161" value="&lt;font style=&quot;font-size: 15px;&quot;&gt;&lt;i&gt;bypass_decoding&lt;/i&gt;&lt;/font&gt;" style="text;strokeColor=none;align=center;fillColor=none;html=1;verticalAlign=middle;whiteSpace=wrap;rounded=0;fontSize=17;" parent="1" vertex="1">
          <mxGeometry x="154" y="1608" width="60" height="35" as="geometry" />
        </mxCell>
        <mxCell id="L-PkWKqUlunyUm9uGWdc-162" value="&lt;font style=&quot;font-size: 18px;&quot; color=&quot;#000000&quot;&gt;&amp;nbsp; &amp;nbsp; &amp;nbsp; &amp;nbsp; &amp;nbsp; &amp;nbsp;&amp;nbsp;&lt;b&gt;Mask Decoder&lt;/b&gt;&lt;/font&gt;" style="verticalAlign=top;align=left;shape=cube;size=10;direction=south;fontStyle=0;html=1;boundedLbl=1;spacingLeft=5;rounded=1;fillColor=#95F0E1;strokeColor=#10739e;strokeWidth=2;" parent="1" vertex="1">
          <mxGeometry x="270" y="1420" width="268" height="110" as="geometry" />
        </mxCell>
        <mxCell id="L-PkWKqUlunyUm9uGWdc-163" value="&lt;font style=&quot;font-size: 15px;&quot;&gt;Mask1&lt;/font&gt;" style="verticalAlign=top;align=center;shape=cube;size=10;direction=south;html=1;boundedLbl=1;spacingLeft=5;rounded=1;fillColor=#7CFA9B;strokeColor=#000000;fontColor=#000000;" parent="L-PkWKqUlunyUm9uGWdc-162" vertex="1">
          <mxGeometry width="100" height="40" relative="1" as="geometry">
            <mxPoint x="24" y="45" as="offset" />
          </mxGeometry>
        </mxCell>
        <mxCell id="L-PkWKqUlunyUm9uGWdc-164" value="&lt;font style=&quot;font-size: 15px;&quot;&gt;Mask2&lt;/font&gt;" style="verticalAlign=top;align=center;shape=cube;size=10;direction=south;html=1;boundedLbl=1;spacingLeft=5;rounded=1;fillColor=#7CFA9B;strokeColor=#000000;fontColor=#000000;" parent="L-PkWKqUlunyUm9uGWdc-162" vertex="1">
          <mxGeometry width="100" height="40" relative="1" as="geometry">
            <mxPoint x="134" y="44" as="offset" />
          </mxGeometry>
        </mxCell>
        <mxCell id="L-PkWKqUlunyUm9uGWdc-165" style="html=1;fontColor=#000000;shadow=0;strokeColor=#006EAF;strokeWidth=4;entryX=0.039;entryY=0.422;entryDx=0;entryDy=0;rounded=0;entryPerimeter=0;" parent="1" target="L-PkWKqUlunyUm9uGWdc-117" edge="1">
          <mxGeometry relative="1" as="geometry">
            <mxPoint x="733" y="1566" as="targetPoint" />
            <mxPoint x="539" y="1492" as="sourcePoint" />
            <Array as="points">
              <mxPoint x="733" y="1491" />
            </Array>
          </mxGeometry>
        </mxCell>
        <mxCell id="L-PkWKqUlunyUm9uGWdc-166" style="html=1;fontColor=#000000;shadow=0;strokeColor=#3700CC;fillColor=#6a00ff;strokeWidth=2;" parent="1" edge="1">
          <mxGeometry relative="1" as="geometry">
            <mxPoint x="660" y="1443" as="targetPoint" />
            <mxPoint x="539" y="1443.0449111807734" as="sourcePoint" />
          </mxGeometry>
        </mxCell>
        <mxCell id="L-PkWKqUlunyUm9uGWdc-167" value="" style="endArrow=classic;startArrow=none;endFill=1;startFill=0;html=1;verticalAlign=bottom;labelBackgroundColor=none;strokeWidth=2;shadow=0;sketch=0;fontColor=#000000;fillColor=#008a00;strokeColor=#005700;" parent="1" edge="1">
          <mxGeometry width="160" relative="1" as="geometry">
            <mxPoint x="90" y="1460" as="sourcePoint" />
            <mxPoint x="269" y="1459.5" as="targetPoint" />
          </mxGeometry>
        </mxCell>
        <mxCell id="L-PkWKqUlunyUm9uGWdc-168" value="&lt;font style=&quot;font-size: 15px;&quot;&gt;&lt;i&gt;mask_read&lt;/i&gt;&lt;/font&gt;" style="text;strokeColor=none;align=center;fillColor=none;html=1;verticalAlign=middle;whiteSpace=wrap;rounded=0;fontSize=17;" parent="1" vertex="1">
          <mxGeometry x="171" y="1432" width="60" height="30" as="geometry" />
        </mxCell>
        <mxCell id="L-PkWKqUlunyUm9uGWdc-169" value="&lt;font style=&quot;font-size: 15px;&quot;&gt;&lt;i&gt;mask_can_read&lt;/i&gt;&lt;/font&gt;" style="text;strokeColor=none;align=center;fillColor=none;html=1;verticalAlign=middle;whiteSpace=wrap;rounded=0;fontSize=17;" parent="1" vertex="1">
          <mxGeometry x="563" y="1418" width="60" height="30" as="geometry" />
        </mxCell>
        <mxCell id="L-PkWKqUlunyUm9uGWdc-170" value="&lt;font style=&quot;font-size: 15px;&quot;&gt;&lt;i&gt;dto_mask&lt;/i&gt;&lt;/font&gt;" style="text;strokeColor=none;align=center;fillColor=none;html=1;verticalAlign=middle;whiteSpace=wrap;rounded=0;fontSize=17;" parent="1" vertex="1">
          <mxGeometry x="544" y="1485" width="60" height="30" as="geometry" />
        </mxCell>
        <mxCell id="L-PkWKqUlunyUm9uGWdc-171" style="html=1;fontColor=#000000;shadow=0;strokeColor=#006EAF;strokeWidth=2;horizontal=0;entryX=0;entryY=0.75;entryDx=0;entryDy=0;entryPerimeter=0;" parent="1" target="L-PkWKqUlunyUm9uGWdc-173" edge="1">
          <mxGeometry relative="1" as="geometry">
            <mxPoint x="619.7200000000003" y="1540.2035" as="targetPoint" />
            <mxPoint x="620" y="1490" as="sourcePoint" />
          </mxGeometry>
        </mxCell>
        <mxCell id="L-PkWKqUlunyUm9uGWdc-172" value="" style="endArrow=classic;startArrow=none;endFill=1;startFill=0;html=1;verticalAlign=bottom;labelBackgroundColor=none;strokeWidth=2;shadow=0;sketch=0;fontColor=#000000;fillColor=#008a00;strokeColor=#005700;entryX=-0.016;entryY=0.35;entryDx=0;entryDy=0;entryPerimeter=0;" parent="1" target="L-PkWKqUlunyUm9uGWdc-173" edge="1">
          <mxGeometry width="160" relative="1" as="geometry">
            <mxPoint x="640" y="1460" as="sourcePoint" />
            <mxPoint x="810" y="1462" as="targetPoint" />
          </mxGeometry>
        </mxCell>
        <mxCell id="L-PkWKqUlunyUm9uGWdc-173" value="" style="shape=or;whiteSpace=wrap;html=1;direction=south;strokeWidth=2;" parent="1" vertex="1">
          <mxGeometry x="608" y="1540" width="50" height="30" as="geometry" />
        </mxCell>
        <mxCell id="L-PkWKqUlunyUm9uGWdc-174" value="" style="endArrow=classic;startArrow=none;endFill=1;startFill=0;html=1;verticalAlign=bottom;labelBackgroundColor=none;strokeWidth=2;shadow=0;sketch=0;fontColor=#000000;fillColor=#008a00;strokeColor=#005700;exitX=1;exitY=0.5;exitDx=0;exitDy=0;exitPerimeter=0;entryX=0.211;entryY=0;entryDx=0;entryDy=0;entryPerimeter=0;" parent="1" source="L-PkWKqUlunyUm9uGWdc-173" target="L-PkWKqUlunyUm9uGWdc-115" edge="1">
          <mxGeometry width="160" relative="1" as="geometry">
            <mxPoint x="629" y="1570" as="sourcePoint" />
            <mxPoint x="633" y="1620" as="targetPoint" />
            <Array as="points">
              <mxPoint x="633" y="1600" />
            </Array>
          </mxGeometry>
        </mxCell>
        <mxCell id="L-PkWKqUlunyUm9uGWdc-175" value="" style="endArrow=classic;startArrow=none;endFill=1;startFill=0;html=1;verticalAlign=bottom;labelBackgroundColor=none;strokeWidth=2;shadow=0;sketch=0;fontColor=#000000;fillColor=#008a00;strokeColor=#005700;" parent="1" edge="1">
          <mxGeometry width="160" relative="1" as="geometry">
            <mxPoint x="633" y="1590" as="sourcePoint" />
            <mxPoint x="540" y="1790" as="targetPoint" />
            <Array as="points">
              <mxPoint x="633" y="1790" />
            </Array>
          </mxGeometry>
        </mxCell>
        <mxCell id="L-PkWKqUlunyUm9uGWdc-176" value="" style="endArrow=classicThin;startArrow=none;endFill=1;startFill=0;endSize=8;html=1;verticalAlign=bottom;labelBackgroundColor=none;strokeWidth=2;shadow=0;sketch=0;fontColor=#000000;fillColor=#008a00;strokeColor=#005700;" parent="1" edge="1">
          <mxGeometry width="160" relative="1" as="geometry">
            <mxPoint x="90" y="1493" as="sourcePoint" />
            <mxPoint x="267" y="1493" as="targetPoint" />
          </mxGeometry>
        </mxCell>
        <mxCell id="L-PkWKqUlunyUm9uGWdc-177" value="&lt;font style=&quot;font-size: 15px;&quot;&gt;&lt;i&gt;bypass_mask&lt;/i&gt;&lt;/font&gt;" style="text;strokeColor=none;align=center;fillColor=none;html=1;verticalAlign=middle;whiteSpace=wrap;rounded=0;fontSize=17;" parent="1" vertex="1">
          <mxGeometry x="163" y="1463" width="60" height="35" as="geometry" />
        </mxCell>
      </root>
    </mxGraphModel>
  </diagram>
</mxfile>
